border-2<svg width="312" height="562" viewBox="0 0 312 562" fill="none" xmlns="http://www.w3.org/2000/svg">
<path fill-rule="evenodd" clip-rule="evenodd" d="M279.682 533.26C282.083 534.778 281.645 533.66 282.288 537.103C282.653 539.059 282.855 541.069 282.943 543.1C283.032 545.182 283.114 547.414 282.609 549.387C281.753 552.732 280.766 552.356 280.757 554.074C281.893 554.049 281.985 553.564 283.643 551.729C287.164 547.833 284.635 541.393 284.306 539.282C285.235 539.9 285.94 542.531 286.393 543.793C286.957 545.364 287.6 548.502 288.159 549.101C289.482 545.879 285.44 538.201 284.522 535.586C285.896 536.378 288.963 542.844 289.777 544.904C290.42 546.53 290.242 547.683 291.909 547.785C292.553 546.743 292.333 546.612 292.303 545.09C292.402 545.125 294.923 547.545 296.209 543.886C295.634 542.912 295.587 543.31 295.074 542.557C295.806 542.52 296.904 542.768 297.302 542.143C298.623 540.071 291.795 540.224 285.606 535.075C288.786 535.195 292.979 538.912 298.069 539.011C297.568 538 297.789 538.351 295.528 537.659C294.502 537.344 293.696 537.123 292.691 536.802L288.652 535.291C287.724 534.848 288.031 535.085 287.584 534.415C291.126 534.98 295.427 537.26 300.329 534.442C301.722 533.641 303.3 533.679 302.913 531.942C297.543 532.692 298.005 534.011 289.222 533.146C283.815 532.613 284.357 532.678 283.483 530.968C282.446 528.935 279.383 530.39 279.68 533.259L279.682 533.26Z" fill="#E3B04B"/>
<path fill-rule="evenodd" clip-rule="evenodd" d="M258.373 544.867L258.205 544.034C253.79 545.181 252.112 545.264 247.602 545.38C246.31 545.413 244.698 545.077 244.048 545.979C245.046 547.219 248.91 546.556 250.517 546.556C252.784 546.556 255.085 546.518 257.348 546.572L256.914 548.611C245.57 548.78 231.439 548.724 220.5 549C219.316 549.03 219.804 549.13 219.5 550C220.743 550.474 256.561 550.058 259.504 549.599C260.349 546.453 261.07 544.148 263.82 543.147C263.509 541.032 260.804 535.405 264.697 531.713C268.727 527.891 272.513 531.099 272.552 534.989C271.761 535.581 271.018 535.409 270.368 536.266C268.296 538.999 272.307 541.717 274.665 537.374C279.344 528.762 263.511 524.939 260.42 533.778C259.667 535.933 259.668 537.918 260.254 540.031C261.197 543.429 259.647 543.002 258.372 544.866L258.373 544.867Z" fill="#E3B04B"/>
<path fill-rule="evenodd" clip-rule="evenodd" d="M300 471C298.735 471.427 298.992 472.377 299 475L298.659 507.566L296.727 507.935L296.709 495.505C296.519 494.363 296.732 494.91 296.041 494.532C295.271 495.225 295.586 496.027 295.543 497.829C295.422 502.875 295.318 503.957 294.108 508.844L295.739 508.361C294.402 509.115 293.399 510.612 292.605 510.954C290.596 511.821 284.895 507.974 280.263 513.424C277.116 517.126 278.21 526.363 284.853 525.803C287.871 525.548 290.093 523.663 289.213 520.756C288.411 520.451 287.376 520.105 286.332 520.721C285.316 521.321 285.462 522.172 284.882 522.992C277.037 522.861 278.84 513.176 287.268 513.176C289.819 513.176 291.139 514.145 293.122 514.34C294.204 511.623 296.363 511.03 299.657 510.08C300.099 506.65 300 475.5 300.001 472L300 471Z" fill="#E3B04B"/>
<path fill-rule="evenodd" clip-rule="evenodd" d="M275.47 529.748C275.597 532.059 278.944 537.177 276.462 542.275C274.357 546.598 268.905 546.034 267.354 541.531C267.357 541.527 270.189 538.875 267.977 537.621C265.493 536.214 263.792 541.436 266.774 544.583C268.066 545.947 269.004 546.107 271.411 546.355C268.664 547.227 265.212 546.308 264.063 547.027C265.8 549.284 281.682 548.452 279.449 535.746C279.036 533.393 278.671 529.261 275.47 529.749L275.47 529.748Z" fill="#E3B04B"/>
<path fill-rule="evenodd" clip-rule="evenodd" d="M296.907 514.6C296.044 515.798 296.705 516.666 296.773 518.231C296.835 519.663 296.239 521.388 296.287 522.007C295.792 519.026 294.919 515.717 290.297 515.718C285.949 515.718 286.593 519.696 289.38 519.187C290.585 518.966 290.344 518.46 291.34 517.86C297.704 520.055 295.99 529.241 285.603 527.553C283.42 527.198 281.047 525.994 279.392 525.849C278.981 528.558 281.479 529.127 285.261 529.772C291.079 530.765 295.207 528.762 297.235 522.747C297.926 520.696 298.018 518.605 297.661 516.448L296.907 514.6L296.907 514.6Z" fill="#E3B04B"/>
<path fill-rule="evenodd" clip-rule="evenodd" d="M32.2905 533.26C29.8895 534.778 30.3271 533.66 29.6843 537.103C29.3192 539.059 29.1172 541.069 29.0297 543.1C28.9402 545.182 28.8587 547.414 29.3635 549.387C30.2192 552.732 31.2064 552.356 31.215 554.074C30.0796 554.049 29.9876 553.564 28.3295 551.729C24.8082 547.833 27.337 541.393 27.6664 539.282C26.7374 539.9 26.0323 542.531 25.5796 543.793C25.0158 545.364 24.3726 548.502 23.8133 549.101C22.4903 545.879 26.5322 538.201 27.4502 535.586C26.0763 536.378 23.0097 542.844 22.1951 544.904C21.5523 546.53 21.7306 547.683 20.064 547.785C19.4192 546.743 19.6398 546.612 19.6696 545.09C19.5702 545.125 17.0491 547.545 15.7639 543.886C16.3383 542.912 16.386 543.31 16.8989 542.557C16.1662 542.52 15.0682 542.768 14.6705 542.143C13.3499 540.071 20.178 540.224 26.3665 535.075C23.1864 535.195 18.9934 538.912 13.9032 539.011C14.4051 538 14.1836 538.351 16.4446 537.659C17.4705 537.344 18.2761 537.123 19.2816 536.802L23.3207 535.291C24.2481 534.848 23.9411 535.085 24.3889 534.415C20.8468 534.98 16.5451 537.26 11.6438 534.442C10.2508 533.641 8.67289 533.679 9.05922 531.942C14.4299 532.692 13.9675 534.011 22.7508 533.146C28.1573 532.613 27.6155 532.678 28.4891 530.968C29.5268 528.935 32.5897 530.39 32.2921 533.259L32.2905 533.26Z" fill="#E3B04B"/>
<path fill-rule="evenodd" clip-rule="evenodd" d="M53.5971 544.867L53.766 544.034C58.1809 545.181 59.8589 545.264 64.3686 545.38C65.6603 545.413 67.2724 545.077 67.9221 545.979C66.9243 547.219 63.0607 546.556 61.4539 546.556C59.1864 546.556 56.8855 546.518 54.6225 546.572L55.0569 548.611C66.4008 548.78 80.5314 548.724 91.4702 549C92.6544 549.03 92.1665 549.13 92.4702 550C91.2274 550.474 55.4098 550.058 52.467 549.599C51.6211 546.453 50.9001 544.148 48.1503 543.147C48.4613 541.032 51.1668 535.405 47.2738 531.713C43.2432 527.891 39.4581 531.099 39.4182 534.989C40.2096 535.581 40.9525 535.409 41.6027 536.266C43.6751 538.999 39.6641 541.717 37.3054 537.374C32.6268 528.762 48.46 524.939 51.5503 533.778C52.3034 535.933 52.303 537.918 51.7163 540.031C50.7731 543.429 52.3237 543.002 53.5983 544.866L53.5971 544.867Z" fill="#E3B04B"/>
<path fill-rule="evenodd" clip-rule="evenodd" d="M11.9725 471C13.2377 471.427 12.9804 472.377 12.9726 475L13.3141 507.566L15.2458 507.935L15.2637 495.505C15.4538 494.363 15.2405 494.91 15.9321 494.532C16.7019 495.225 16.3868 496.027 16.43 497.829C16.5509 502.875 16.6551 503.957 17.8646 508.844L16.2334 508.361C17.5702 509.115 18.5737 510.612 19.3679 510.954C21.3769 511.821 27.0773 507.974 31.7096 513.424C34.856 517.126 33.763 526.363 27.1193 525.803C24.1015 525.548 21.8797 523.663 22.7594 520.756C23.5618 520.451 24.597 520.105 25.6403 520.721C26.6564 521.321 26.5103 522.172 27.0908 522.992C34.935 522.861 33.1324 513.176 24.7048 513.176C22.1536 513.176 20.8334 514.145 18.8501 514.34C17.7689 511.623 15.6101 511.03 12.316 510.08C11.8739 506.65 11.9727 475.5 11.9715 472L11.9725 471Z" fill="#E3B04B"/>
<path fill-rule="evenodd" clip-rule="evenodd" d="M36.5002 529.748C36.3732 532.059 33.0265 537.177 35.5085 542.275C37.6136 546.598 43.0661 546.034 44.6167 541.531C44.6138 541.527 41.7817 538.875 43.9934 537.621C46.4771 536.214 48.1787 541.436 45.1968 544.583C43.9047 545.947 42.9668 546.107 40.5601 546.355C43.3071 547.227 46.7588 546.308 47.908 547.027C46.1701 549.284 30.2884 548.452 32.5213 535.746C32.9345 533.393 33.3001 529.261 36.5002 529.749L36.5002 529.748Z" fill="#E3B04B"/>
<path fill-rule="evenodd" clip-rule="evenodd" d="M15.0636 514.6C15.927 515.798 15.2655 516.666 15.1975 518.231C15.1353 519.663 15.7312 521.388 15.684 522.007C16.179 519.026 17.0518 515.717 21.6735 515.718C26.022 515.718 25.3776 519.696 22.5911 519.187C21.3861 518.966 21.6267 518.46 20.6305 517.86C14.2665 520.055 15.9804 529.241 26.3672 527.553C28.5508 527.198 30.9233 525.994 32.5781 525.849C32.9893 528.558 30.4918 529.127 26.71 529.772C20.8919 530.765 16.7636 528.762 14.7359 522.747C14.0447 520.696 13.9531 518.605 14.3093 516.448L15.0636 514.6L15.0636 514.6Z" fill="#E3B04B"/>
<path fill-rule="evenodd" clip-rule="evenodd" d="M279.682 28.8127C282.083 27.2947 281.645 28.4127 282.288 24.9699C282.653 23.0141 282.855 21.0036 282.943 18.9726C283.032 16.8906 283.114 14.6591 282.609 12.6864C281.753 9.34165 280.766 9.71753 280.757 7.99973C281.893 8.02425 281.985 8.50908 283.643 10.3439C287.164 14.2402 284.635 20.6796 284.306 22.7905C285.235 22.1727 285.94 19.5415 286.393 18.28C286.957 16.7089 287.6 13.5712 288.159 12.9718C289.482 16.1943 285.44 23.8712 284.522 26.4867C285.896 25.6947 288.963 19.2287 289.777 17.1684C290.42 15.5427 290.242 14.3897 291.909 14.2884C292.553 15.3304 292.333 15.4615 292.303 16.9827C292.402 16.9481 294.923 14.5284 296.209 18.1871C295.634 19.1604 295.587 18.7632 295.074 19.5158C295.806 19.5531 296.904 19.3051 297.302 19.9294C298.623 22.0018 291.795 21.8482 285.606 26.9972C288.786 26.8778 292.979 23.1604 298.069 23.0619C297.568 24.073 297.789 23.7212 295.528 24.4139C294.502 24.7282 293.696 24.9498 292.691 25.2706L288.652 26.7817C287.724 27.2243 288.031 26.988 287.584 27.6573C291.126 27.0929 295.427 24.8127 300.329 27.6304C301.722 28.4312 303.3 28.3934 302.913 30.1301C297.543 29.3807 298.005 28.0617 289.222 28.9269C283.815 29.4591 284.357 29.394 283.483 31.1046C282.446 33.1375 279.383 31.6826 279.68 28.8135L279.682 28.8127Z" fill="#E3B04B"/>
<path fill-rule="evenodd" clip-rule="evenodd" d="M258.373 17.2063L258.205 18.0388C253.79 16.8915 252.112 16.8087 247.602 16.6933C246.31 16.6603 244.698 16.9956 244.048 16.0935C245.046 14.8545 248.91 15.517 250.517 15.517C252.784 15.517 255.085 15.5552 257.348 15.5009L256.914 13.4623C245.57 13.2935 231.439 13.3489 220.5 13.0731C219.316 13.0434 219.804 12.9435 219.5 12.0732C220.743 11.5988 256.561 12.0155 259.504 12.4742C260.349 15.6199 261.07 17.9251 263.82 18.9261C263.509 21.0407 260.804 26.668 264.697 30.3593C268.727 34.1808 272.513 30.9732 272.552 27.0837C271.761 26.4919 271.018 26.6636 270.368 25.8065C268.296 23.074 272.307 20.356 274.665 24.6982C279.344 33.3101 263.511 37.1332 260.42 28.2942C259.667 26.1394 259.668 24.1551 260.254 22.0421C261.197 18.6435 259.647 19.0712 258.372 17.2071L258.373 17.2063Z" fill="#E3B04B"/>
<path fill-rule="evenodd" clip-rule="evenodd" d="M300 91.0693C298.735 90.642 298.992 89.6922 299 87.0695L298.659 54.5052L296.727 54.1357L296.709 66.5651C296.519 67.7076 296.732 67.1601 296.041 67.5388C295.271 66.8453 295.586 66.0429 295.543 64.2415C295.422 59.1958 295.318 58.114 294.108 53.2268L295.739 53.7104C294.402 52.9558 293.399 51.4595 292.605 51.117C290.596 50.2503 284.895 54.0971 280.263 48.6471C277.116 44.9453 278.21 35.7087 284.853 36.2691C287.871 36.5236 290.093 38.409 289.213 41.3156C288.411 41.6207 287.376 41.9664 286.332 41.3505C285.316 40.7507 285.462 39.8997 284.882 39.08C277.037 39.2102 278.84 48.8955 287.268 48.8955C289.819 48.8955 291.139 47.9263 293.122 47.7313C294.204 50.4477 296.363 51.0406 299.657 51.9914C300.099 55.4206 300 86.5695 300.001 90.0694L300 91.0693Z" fill="#E3B04B"/>
<path fill-rule="evenodd" clip-rule="evenodd" d="M275.47 32.3245C275.597 30.013 278.944 24.8954 276.462 19.7979C274.357 15.475 268.905 16.0386 267.354 20.542C267.357 20.546 270.189 23.1981 267.977 24.4515C265.493 25.859 263.792 20.6373 266.774 17.4899C268.066 16.1259 269.004 15.9663 271.411 15.7182C268.664 14.8459 265.212 15.7649 264.063 15.0465C265.8 12.7888 281.682 13.6209 279.449 26.3269C279.036 28.6791 278.671 32.811 275.47 32.3237L275.47 32.3245Z" fill="#E3B04B"/>
<path fill-rule="evenodd" clip-rule="evenodd" d="M296.907 47.4713C296.044 46.2733 296.705 45.4053 296.773 43.8403C296.835 42.4083 296.239 40.6837 296.287 40.065C295.792 43.0455 294.919 46.3541 290.297 46.3537C285.949 46.3533 286.593 42.3754 289.38 42.8847C290.585 43.105 290.344 43.6116 291.34 44.211C297.704 42.0164 295.99 32.8308 285.603 34.5188C283.42 34.8738 281.047 36.0779 279.392 36.223C278.981 33.5142 281.479 32.945 285.261 32.2997C291.079 31.3072 295.207 33.3096 297.235 39.3249C297.926 41.3752 298.018 43.4668 297.661 45.6232L296.907 47.4717L296.907 47.4713Z" fill="#E3B04B"/>
<path fill-rule="evenodd" clip-rule="evenodd" d="M32.2905 28.8127C29.8895 27.2947 30.3271 28.4127 29.6843 24.9699C29.3192 23.0141 29.1172 21.0036 29.0297 18.9726C28.9402 16.8906 28.8587 14.6591 29.3635 12.6864C30.2192 9.34165 31.2064 9.71753 31.215 7.99973C30.0796 8.02425 29.9876 8.50908 28.3295 10.3439C24.8082 14.2402 27.337 20.6796 27.6664 22.7905C26.7374 22.1727 26.0323 19.5415 25.5796 18.28C25.0158 16.7089 24.3726 13.5712 23.8133 12.9718C22.4903 16.1943 26.5322 23.8712 27.4502 26.4867C26.0763 25.6947 23.0097 19.2287 22.1951 17.1684C21.5523 15.5427 21.7306 14.3897 20.064 14.2884C19.4192 15.3304 19.6398 15.4615 19.6696 16.9827C19.5702 16.9481 17.0491 14.5284 15.7639 18.1871C16.3383 19.1604 16.386 18.7632 16.8989 19.5158C16.1662 19.5531 15.0682 19.3051 14.6705 19.9294C13.3499 22.0018 20.178 21.8482 26.3665 26.9972C23.1864 26.8778 18.9934 23.1604 13.9032 23.0619C14.4051 24.073 14.1836 23.7212 16.4446 24.4139C17.4705 24.7282 18.2761 24.9498 19.2816 25.2706L23.3207 26.7817C24.2481 27.2243 23.9411 26.988 24.3889 27.6573C20.8468 27.0929 16.5451 24.8127 11.6438 27.6304C10.2508 28.4312 8.67289 28.3934 9.05922 30.1301C14.4299 29.3807 13.9675 28.0617 22.7508 28.9269C28.1573 29.4591 27.6155 29.394 28.4891 31.1046C29.5268 33.1375 32.5897 31.6826 32.2921 28.8135L32.2905 28.8127Z" fill="#E3B04B"/>
<path fill-rule="evenodd" clip-rule="evenodd" d="M53.5971 17.2063L53.766 18.0388C58.1809 16.8915 59.8589 16.8087 64.3686 16.6933C65.6603 16.6603 67.2724 16.9956 67.9221 16.0935C66.9243 14.8545 63.0607 15.517 61.4539 15.517C59.1864 15.517 56.8855 15.5552 54.6225 15.5009L55.0569 13.4623C66.4008 13.2935 80.5314 13.3489 91.4702 13.0731C92.6544 13.0434 92.1665 12.9435 92.4702 12.0732C91.2274 11.5988 55.4098 12.0155 52.467 12.4742C51.6211 15.6199 50.9001 17.9251 48.1503 18.9261C48.4613 21.0407 51.1668 26.668 47.2738 30.3593C43.2432 34.1808 39.4581 30.9732 39.4182 27.0837C40.2096 26.4919 40.9525 26.6636 41.6027 25.8065C43.6751 23.074 39.6641 20.356 37.3054 24.6982C32.6268 33.3101 48.46 37.1332 51.5503 28.2942C52.3034 26.1394 52.303 24.1551 51.7163 22.0421C50.7731 18.6435 52.3237 19.0712 53.5983 17.2071L53.5971 17.2063Z" fill="#E3B04B"/>
<path fill-rule="evenodd" clip-rule="evenodd" d="M11.9725 91.0693C13.2377 90.642 12.9804 89.6922 12.9726 87.0695L13.3141 54.5052L15.2458 54.1357L15.2637 66.5651C15.4538 67.7076 15.2405 67.1601 15.9321 67.5388C16.7019 66.8453 16.3868 66.0429 16.43 64.2415C16.5509 59.1958 16.6551 58.114 17.8646 53.2268L16.2334 53.7104C17.5702 52.9558 18.5737 51.4595 19.3679 51.117C21.3769 50.2503 27.0773 54.0971 31.7096 48.6471C34.856 44.9453 33.763 35.7087 27.1193 36.2691C24.1015 36.5236 21.8797 38.409 22.7594 41.3156C23.5618 41.6207 24.597 41.9664 25.6403 41.3505C26.6564 40.7507 26.5103 39.8997 27.0908 39.08C34.935 39.2102 33.1324 48.8955 24.7048 48.8955C22.1536 48.8955 20.8334 47.9263 18.8501 47.7313C17.7689 50.4477 15.6101 51.0406 12.316 51.9914C11.8739 55.4206 11.9727 86.5695 11.9715 90.0694L11.9725 91.0693Z" fill="#E3B04B"/>
<path fill-rule="evenodd" clip-rule="evenodd" d="M36.5002 32.3245C36.3732 30.013 33.0265 24.8954 35.5085 19.7979C37.6136 15.475 43.0661 16.0386 44.6167 20.542C44.6138 20.546 41.7817 23.1981 43.9934 24.4515C46.4771 25.859 48.1787 20.6373 45.1968 17.4899C43.9047 16.1259 42.9668 15.9663 40.5601 15.7182C43.3071 14.8459 46.7588 15.7649 47.908 15.0465C46.1701 12.7888 30.2884 13.6209 32.5213 26.3269C32.9345 28.6791 33.3001 32.811 36.5002 32.3237L36.5002 32.3245Z" fill="#E3B04B"/>
<path fill-rule="evenodd" clip-rule="evenodd" d="M15.0636 47.4713C15.927 46.2733 15.2655 45.4053 15.1975 43.8403C15.1353 42.4083 15.7312 40.6837 15.684 40.065C16.179 43.0455 17.0518 46.3541 21.6735 46.3537C26.022 46.3533 25.3776 42.3754 22.5911 42.8847C21.3861 43.105 21.6267 43.6116 20.6305 44.211C14.2665 42.0164 15.9804 32.8308 26.3672 34.5188C28.5508 34.8738 30.9233 36.0779 32.5781 36.223C32.9893 33.5142 30.4918 32.945 26.71 32.2997C20.8919 31.3072 16.7636 33.3096 14.7359 39.3249C14.0447 41.3752 13.9531 43.4668 14.3093 45.6232L15.0636 47.4717L15.0636 47.4713Z" fill="#E3B04B"/>
<path fill-rule="evenodd" clip-rule="evenodd" d="M12 56V499H13V56H12ZM57 13H254V12H57V13ZM299 488V62H300V488H299ZM64 550H232V549H64V550Z" fill="#E3B04B"/>
</svg>
