<svg width="84" height="85" viewBox="0 0 84 85" fill="none" xmlns="http://www.w3.org/2000/svg">
<path fill-rule="evenodd" clip-rule="evenodd" d="M23.4957 21.2614C21.0736 19.7107 21.515 20.8528 20.8666 17.3358C20.4982 15.3378 20.2945 13.2841 20.2062 11.2093C20.1159 9.08244 20.0337 6.80279 20.543 4.78761C21.4062 1.37079 22.4021 1.75477 22.4107 -4.27162e-05C21.2654 0.0250084 21.1725 0.520284 19.4999 2.39461C15.9475 6.37487 18.4986 12.9531 18.8309 15.1095C17.8937 14.4783 17.1824 11.7904 16.7258 10.5017C16.157 8.89682 15.5081 5.6915 14.9438 5.07918C13.6091 8.37115 17.6867 16.2134 18.6128 18.8853C17.2268 18.0762 14.1332 11.4709 13.3114 9.36622C12.663 7.70545 12.8428 6.52763 11.1615 6.42414C10.511 7.48861 10.7336 7.62249 10.7636 9.17649C10.6634 9.14117 8.12005 6.66931 6.82355 10.4069C7.40302 11.4011 7.45107 10.9954 7.96852 11.7641C7.22931 11.8023 6.12172 11.549 5.72049 12.1867C4.38826 14.3038 11.2765 14.1469 17.5196 19.4068C14.3114 19.2848 10.0814 15.4873 4.94636 15.3867C5.45272 16.4196 5.22932 16.0602 7.51021 16.7678C8.54511 17.089 9.35784 17.3152 10.3722 17.643L14.4469 19.1867C15.3824 19.6388 15.0728 19.3974 15.5245 20.0811C11.9512 19.5046 7.61164 17.1752 2.66711 20.0536C1.26178 20.8717 -0.329991 20.8331 0.0597391 22.6072C5.47777 21.8417 5.01125 20.4943 13.872 21.3781C19.3261 21.9218 18.7795 21.8553 19.6608 23.6027C20.7077 25.6795 23.7976 24.1932 23.4974 21.2622L23.4957 21.2614Z" fill="#E3B04B"/>
<path fill-rule="evenodd" clip-rule="evenodd" d="M44.9924 9.40478L45.1628 10.2553C49.6166 9.08322 51.3094 8.99862 55.8588 8.88076C57.1619 8.84709 58.7882 9.18959 59.4436 8.26804C58.437 7.00234 54.5393 7.67913 52.9184 7.67913C50.6309 7.67913 48.3098 7.71815 46.0268 7.6627L46.465 5.58017C57.9089 5.40769 71.3253 5.86559 82.3605 5.58386C83.5552 5.55347 83.6295 5.64793 83.9358 4.75882C82.682 4.27423 46.8211 4.10215 43.8523 4.57073C42.9989 7.78426 42.2716 10.1391 39.4975 11.1617C39.8113 13.3218 42.5406 19.0704 38.6133 22.8412C34.5472 26.7451 30.7288 23.4683 30.6885 19.4951C31.4869 18.8906 32.2364 19.0659 32.8922 18.1904C34.983 15.399 30.9366 12.6224 28.5571 17.0581C23.8373 25.8556 39.81 29.7611 42.9275 20.7316C43.6872 18.5304 43.6868 16.5033 43.095 14.3448C42.1435 10.8729 43.7078 11.3099 44.9936 9.40561L44.9924 9.40478Z" fill="#E3B04B"/>
<path fill-rule="evenodd" clip-rule="evenodd" d="M3.4403 85C4.71668 84.5635 4.35981 83.9224 4.35201 81.2431L4.35119 47.5078L6.29984 47.1304L6.31791 59.8277C6.50969 60.9948 6.29449 60.4355 6.99223 60.8223C7.76882 60.1139 7.45095 59.2942 7.49449 57.454C7.61646 52.2996 7.7216 51.1945 8.94171 46.2019L7.29614 46.6959C8.64479 45.9251 9.65711 44.3966 10.4583 44.0467C12.485 43.1613 18.2357 47.091 22.9088 41.5235C26.0829 37.742 24.9802 28.3063 18.278 28.8788C15.2337 29.1388 12.9922 31.0648 13.8797 34.034C14.6891 34.3457 15.7334 34.6989 16.786 34.0697C17.8111 33.457 17.6636 32.5876 18.2492 31.7502C26.1625 31.8833 24.3441 41.7773 15.8423 41.7773C13.2686 41.7773 11.9368 40.7871 9.93596 40.588C8.8452 43.3629 6.66739 43.9686 3.34421 44.9399C2.89822 48.4429 2.94462 81.3893 3.4403 84.9996L3.4403 85Z" fill="#E3B04B"/>
<path fill-rule="evenodd" clip-rule="evenodd" d="M27.7442 24.8491C27.616 22.4877 24.2399 17.2598 26.7438 12.0525C28.8674 7.63648 34.368 8.21224 35.9322 12.8126C35.9293 12.8167 33.0723 15.526 35.3035 16.8064C37.809 18.2442 39.5256 12.91 36.5174 9.69478C35.2139 8.30136 34.2677 8.13832 31.8398 7.88494C34.6111 6.99377 38.0932 7.93258 39.2525 7.1987C37.4994 4.89235 21.4777 5.74245 23.7302 18.7222C24.1471 21.1251 24.5159 25.346 27.7442 24.8483L27.7442 24.8491Z" fill="#E3B04B"/>
<path fill-rule="evenodd" clip-rule="evenodd" d="M6.11893 40.3228C6.98997 39.099 6.32263 38.2124 6.25404 36.6136C6.19121 35.1508 6.79244 33.389 6.7448 32.757C7.24418 35.8017 8.12467 39.1816 12.7871 39.1812C17.1739 39.1807 16.5238 35.1171 13.7127 35.6374C12.4971 35.8625 12.7398 36.3799 11.7349 36.9923C5.31483 34.7504 7.04377 25.3669 17.5221 27.0913C19.725 27.4539 22.1184 28.6839 23.7878 28.8321C24.2026 26.065 21.6831 25.4835 17.8679 24.8244C11.9986 23.8104 7.83391 25.856 5.78833 32.0009C5.09101 34.0953 4.99861 36.2321 5.35795 38.435L6.11893 40.3232L6.11893 40.3228Z" fill="#E3B04B"/>
</svg>
